<svg width="37" height="42" viewBox="0 0 37 42" fill="none" xmlns="http://www.w3.org/2000/svg">
<path d="M25.4447 18.1875C25.3254 17.7727 25.1577 17.4062 24.9418 17.0881C24.7259 16.7642 24.4617 16.4915 24.1492 16.2699C23.8424 16.0426 23.4901 15.8693 23.0924 15.75C22.7004 15.6307 22.2657 15.571 21.7884 15.571C20.8964 15.571 20.1123 15.7926 19.4361 16.2358C18.7657 16.679 18.243 17.3239 17.868 18.1705C17.493 19.0114 17.3055 20.0398 17.3055 21.2557C17.3055 22.4716 17.4901 23.5057 17.8594 24.358C18.2288 25.2102 18.7515 25.8608 19.4276 26.3097C20.1038 26.7528 20.9021 26.9744 21.8225 26.9744C22.6577 26.9744 23.3708 26.8267 23.9617 26.5312C24.5583 26.2301 25.0129 25.8068 25.3254 25.2614C25.6435 24.7159 25.8026 24.071 25.8026 23.3267L26.5526 23.4375H22.0526V20.6591H29.3566V22.858C29.3566 24.392 29.0327 25.7102 28.385 26.8125C27.7373 27.9091 26.8452 28.7557 25.7089 29.3523C24.5725 29.9432 23.2714 30.2386 21.8055 30.2386C20.1691 30.2386 18.7316 29.8778 17.493 29.1562C16.2543 28.429 15.2884 27.3977 14.5952 26.0625C13.9077 24.7216 13.564 23.1307 13.564 21.2898C13.564 19.875 13.7685 18.6136 14.1776 17.5057C14.5924 16.392 15.1719 15.4489 15.9163 14.6761C16.6606 13.9034 17.5271 13.3153 18.5157 12.9119C19.5043 12.5085 20.5754 12.3068 21.7288 12.3068C22.7174 12.3068 23.6379 12.4517 24.4901 12.7415C25.3424 13.0256 26.0981 13.429 26.7572 13.9517C27.4219 14.4744 27.9646 15.0966 28.385 15.8182C28.8055 16.5341 29.0754 17.3239 29.1947 18.1875H25.4447Z" fill="#7E6014"/>
<path d="M25.4447 18.1875L24.4836 18.464L24.6918 19.1875H25.4447V18.1875ZM24.9418 17.0881L24.1098 17.6428L24.1144 17.6496L24.9418 17.0881ZM24.1492 16.2699L23.554 17.0734L23.5623 17.0796L23.5708 17.0856L24.1492 16.2699ZM23.0924 15.75L22.8012 16.7067L22.805 16.7078L23.0924 15.75ZM19.4361 16.2358L18.8879 15.3994L18.8847 15.4016L19.4361 16.2358ZM17.868 18.1705L18.7813 18.5777L18.7823 18.5755L17.868 18.1705ZM19.4276 26.3097L18.8745 27.1428L18.8794 27.146L19.4276 26.3097ZM23.9617 26.5312L24.4089 27.4257L24.4123 27.424L23.9617 26.5312ZM25.3254 25.2614L24.4615 24.7575L24.4577 24.7643L25.3254 25.2614ZM25.8026 23.3267L25.9488 22.3374L24.8026 22.1681V23.3267H25.8026ZM26.5526 23.4375V24.4375L26.6988 22.4482L26.5526 23.4375ZM22.0526 23.4375H21.0526V24.4375H22.0526V23.4375ZM22.0526 20.6591V19.6591H21.0526V20.6591H22.0526ZM29.3566 20.6591H30.3566V19.6591H29.3566V20.6591ZM28.385 26.8125L29.246 27.3211L29.2472 27.3191L28.385 26.8125ZM25.7089 29.3523L26.1702 30.2395L26.1737 30.2377L25.7089 29.3523ZM17.493 29.1562L16.9866 30.0186L16.9896 30.0203L17.493 29.1562ZM14.5952 26.0625L13.7054 26.5187L13.7077 26.5233L14.5952 26.0625ZM14.1776 17.5057L13.2405 17.1567L13.2395 17.1593L14.1776 17.5057ZM15.9163 14.6761L16.6365 15.3699L16.6365 15.3699L15.9163 14.6761ZM18.5157 12.9119L18.1379 11.986L18.1379 11.986L18.5157 12.9119ZM24.4901 12.7415L24.1682 13.6883L24.1739 13.6902L24.4901 12.7415ZM26.7572 13.9517L26.1358 14.7352L26.1391 14.7378L26.7572 13.9517ZM28.385 15.8182L27.521 16.3216L27.5227 16.3246L28.385 15.8182ZM29.1947 18.1875V19.1875H30.3423L30.1853 18.0506L29.1947 18.1875ZM26.4057 17.911C26.2607 17.4071 26.0513 16.9421 25.7693 16.5266L24.1144 17.6496C24.2642 17.8704 24.39 18.1384 24.4836 18.464L26.4057 17.911ZM25.7739 16.5334C25.4912 16.1094 25.1416 15.7477 24.7276 15.4542L23.5708 17.0856C23.7819 17.2353 23.9606 17.419 24.1098 17.6428L25.7739 16.5334ZM24.7444 15.4663C24.3369 15.1644 23.8785 14.9418 23.3797 14.7922L22.805 16.7078C23.1017 16.7968 23.3479 16.9208 23.554 17.0734L24.7444 15.4663ZM23.3836 14.7933C22.8831 14.641 22.3485 14.571 21.7884 14.571V16.571C22.1829 16.571 22.5176 16.6204 22.8012 16.7067L23.3836 14.7933ZM21.7884 14.571C20.7225 14.571 19.7436 14.8386 18.888 15.3994L19.9843 17.0721C20.4809 16.7467 21.0702 16.571 21.7884 16.571V14.571ZM18.8847 15.4016C18.0316 15.9655 17.394 16.7713 16.9536 17.7655L18.7823 18.5755C19.0919 17.8765 19.4998 17.3925 19.9876 17.07L18.8847 15.4016ZM16.9547 17.7632C16.5073 18.7663 16.3055 19.9423 16.3055 21.2557H18.3055C18.3055 20.1373 18.4786 19.2564 18.7813 18.5777L16.9547 17.7632ZM16.3055 21.2557C16.3055 22.5681 16.5042 23.7454 16.9419 24.7556L18.777 23.9603C18.4761 23.2659 18.3055 22.3751 18.3055 21.2557H16.3055ZM16.9419 24.7556C17.3767 25.7589 18.015 26.5722 18.8745 27.1428L19.9807 25.4765C19.4879 25.1494 19.0809 24.6616 18.777 23.9603L16.9419 24.7556ZM18.8794 27.146C19.7402 27.7102 20.7351 27.9744 21.8225 27.9744V25.9744C21.069 25.9744 20.4673 25.7954 19.9758 25.4733L18.8794 27.146ZM21.8225 27.9744C22.7731 27.9744 23.6474 27.8064 24.4089 27.4257L23.5145 25.6368C23.0942 25.847 22.5424 25.9744 21.8225 25.9744V27.9744ZM24.4123 27.424C25.1721 27.0405 25.777 26.4847 26.193 25.7585L24.4577 24.7643C24.2487 25.1289 23.9445 25.4198 23.5111 25.6385L24.4123 27.424ZM26.1891 25.7652C26.6113 25.0415 26.8026 24.2162 26.8026 23.3267H24.8026C24.8026 23.9258 24.6757 24.3903 24.4616 24.7575L26.1891 25.7652ZM25.6565 24.316L26.4065 24.4268L26.6988 22.4482L25.9488 22.3374L25.6565 24.316ZM26.5526 22.4375H22.0526V24.4375H26.5526V22.4375ZM23.0526 23.4375V20.6591H21.0526V23.4375H23.0526ZM22.0526 21.6591H29.3566V19.6591H22.0526V21.6591ZM28.3566 20.6591V22.858H30.3566V20.6591H28.3566ZM28.3566 22.858C28.3566 24.2496 28.0638 25.3853 27.5228 26.3059L29.2472 27.3191C30.0017 26.0352 30.3566 24.5345 30.3566 22.858H28.3566ZM27.524 26.3039C26.9715 27.2392 26.2172 27.9559 25.244 28.4669L26.1737 30.2377C27.4732 29.5554 28.503 28.5789 29.246 27.3211L27.524 26.3039ZM25.2475 28.4651C24.273 28.9718 23.1341 29.2386 21.8055 29.2386V31.2386C23.4086 31.2386 24.872 30.9146 26.1702 30.2395L25.2475 28.4651ZM21.8055 29.2386C20.3205 29.2386 19.0616 28.9128 17.9963 28.2922L16.9896 30.0203C18.4016 30.8429 20.0177 31.2386 21.8055 31.2386V29.2386ZM17.9993 28.2939C16.9309 27.6666 16.0935 26.7782 15.4828 25.6017L13.7077 26.5233C14.4833 28.0172 15.5778 29.1914 16.9866 30.0186L17.9993 28.2939ZM15.4851 25.6063C14.8843 24.4345 14.564 23.0067 14.564 21.2898H12.564C12.564 23.2547 12.9312 25.0087 13.7054 26.5187L15.4851 25.6063ZM14.564 21.2898C14.564 19.9704 14.7548 18.8296 15.1157 17.8521L13.2395 17.1593C12.7823 18.3977 12.564 19.7796 12.564 21.2898H14.564ZM15.1147 17.8547C15.4868 16.8557 15.9971 16.0336 16.6365 15.3699L15.196 13.9824C14.3468 14.8641 13.698 15.9284 13.2405 17.1567L15.1147 17.8547ZM16.6365 15.3699C17.2846 14.6971 18.0346 14.1883 18.8935 13.8378L18.1379 11.986C17.0195 12.4424 16.0366 13.1098 15.196 13.9824L16.6365 15.3699ZM18.8935 13.8378C19.7529 13.4872 20.6944 13.3068 21.7288 13.3068V11.3068C20.4563 11.3068 19.2558 11.5299 18.1379 11.986L18.8935 13.8378ZM21.7288 13.3068C22.6186 13.3068 23.4293 13.437 24.1682 13.6882L24.812 11.7947C23.8464 11.4664 22.8162 11.3068 21.7288 11.3068V13.3068ZM24.1739 13.6902C24.9232 13.9399 25.574 14.2897 26.1358 14.7352L27.3786 13.1682C26.6221 12.5683 25.7616 12.1112 24.8064 11.7928L24.1739 13.6902ZM26.1391 14.7378C26.7061 15.1836 27.1648 15.7103 27.521 16.3216L29.249 15.3147C28.7643 14.4829 28.1378 13.7652 27.3753 13.1656L26.1391 14.7378ZM27.5227 16.3246C27.8732 16.9213 28.1019 17.5845 28.2041 18.3244L30.1853 18.0506C30.0488 17.0632 29.7377 16.1469 29.2473 15.3118L27.5227 16.3246ZM29.1947 17.1875H25.4447V19.1875H29.1947V17.1875Z" fill="#151467"/>
<path d="M7.52557 30H3.57102L9.59659 12.5455H14.3523L20.3693 30H16.4148L12.0426 16.5341H11.9062L7.52557 30ZM7.27841 23.1392H16.6193V26.0199H7.27841V23.1392Z" fill="#151467"/>
<path d="M7.52557 30V31H8.25184L8.47651 30.3094L7.52557 30ZM3.57102 30L2.62576 29.6737L2.1679 31H3.57102V30ZM9.59659 12.5455V11.5455H8.8839L8.65133 12.2191L9.59659 12.5455ZM14.3523 12.5455L15.2977 12.2195L15.0653 11.5455H14.3523V12.5455ZM20.3693 30V31H21.7718L21.3147 29.6741L20.3693 30ZM16.4148 30L15.4637 30.3088L15.6881 31H16.4148V30ZM12.0426 16.5341L12.9937 16.2253L12.7693 15.5341H12.0426V16.5341ZM11.9062 16.5341V15.5341H11.18L10.9553 16.2247L11.9062 16.5341ZM7.27841 23.1392V22.1392H6.27841V23.1392H7.27841ZM16.6193 23.1392H17.6193V22.1392H16.6193V23.1392ZM16.6193 26.0199V27.0199H17.6193V26.0199H16.6193ZM7.27841 26.0199H6.27841V27.0199H7.27841V26.0199ZM7.52557 29H3.57102V31H7.52557V29ZM4.51628 30.3263L10.5419 12.8718L8.65133 12.2191L2.62576 29.6737L4.51628 30.3263ZM9.59659 13.5455H14.3523V11.5455H9.59659V13.5455ZM13.4069 12.8714L19.4239 30.3259L21.3147 29.6741L15.2977 12.2195L13.4069 12.8714ZM20.3693 29H16.4148V31H20.3693V29ZM17.3659 29.6912L12.9937 16.2253L11.0915 16.8429L15.4637 30.3088L17.3659 29.6912ZM12.0426 15.5341H11.9062V17.5341H12.0426V15.5341ZM10.9553 16.2247L6.57462 29.6906L8.47651 30.3094L12.8572 16.8434L10.9553 16.2247ZM7.27841 24.1392H16.6193V22.1392H7.27841V24.1392ZM15.6193 23.1392V26.0199H17.6193V23.1392H15.6193ZM16.6193 25.0199H7.27841V27.0199H16.6193V25.0199ZM8.27841 26.0199V23.1392H6.27841V26.0199H8.27841Z" fill="#7E6014"/>
</svg>
